<svg height="140px" viewBox="0 0 1027 140" version="1.1" xmlns="http://www.w3.org/2000/svg" xmlns:xlink="http://www.w3.org/1999/xlink">

  <defs>
      <rect id="path-1" x="0" y="0" height="140"></rect>
  </defs>

  <g id="Landing-Page" stroke="none" stroke-width="1" fill="none" fill-rule="evenodd">
    <g transform="translate(0.000000, -896.000000)" id="Group">
      <g transform="translate(0.000000, 896.000000)">
        <mask id="mask-2" fill="white">
          <use xlink:href="#path-1"></use>
        </mask>
        <use id="Mask" fill="#1B1D2F" xlink:href="#path-1"></use>
        <g id="Page-1" opacity="0.2734375" mask="url(#mask-2)">
          <g transform="translate(-123.000000, -36.000000)">
            <polygon id="Fill-1" stroke="none" fill="#293171" fill-rule="evenodd" points="114.30316 108.177925 0 109.623441 91.6101643 177.934913 57.6731153 287 151.003104 221.046021 244.326885 287 210.383627 177.934913 302 109.623441 187.703049 108.177925 151.003104 0"></polygon>
            <polygon id="Stroke-2" stroke="#333366" stroke-width="0.249" fill="none" points="151.003104 0 187.703049 108.171721 302 109.623441 210.383627 177.928709 244.326885 287 151.003104 221.039818 57.679324 287 91.616373 177.928709 0 109.623441 114.30316 108.171721"></polygon>
          </g>
        </g>
        <g id="Page-1-Copy-4" opacity="0.2734375" mask="url(#mask-2)">
          <g transform="translate(848.000000, -16.000000)">
            <polygon id="Fill-1" stroke="none" fill="#293171" fill-rule="evenodd" points="114.30316 108.177925 0 109.623441 91.6101643 177.934913 57.6731153 287 151.003104 221.046021 244.326885 287 210.383627 177.934913 302 109.623441 187.703049 108.177925 151.003104 0"></polygon>
            <polygon id="Stroke-2" stroke="#333366" stroke-width="0.249" fill="none" points="151.003104 0 187.703049 108.171721 302 109.623441 210.383627 177.928709 244.326885 287 151.003104 221.039818 57.679324 287 91.616373 177.928709 0 109.623441 114.30316 108.171721"></polygon>
          </g>
        </g>
        <g id="Page-1-Copy" opacity="0.2734375" mask="url(#mask-2)">
          <g transform="translate(117.000000, 126.000000)">
              <polygon id="Fill-1" stroke="none" fill="#293171" fill-rule="evenodd" points="30.65747 29.0233458 0 29.4111671 24.5709381 47.7386351 15.468617 77 40.5008326 59.3050302 65.531383 77 56.4273966 47.7386351 81 29.4111671 50.3441952 29.0233458 40.5008326 0"></polygon>
              <polygon id="Stroke-2" stroke="#333366" stroke-width="0.249" fill="none" points="40.5008326 0 50.3441952 29.0216813 81 29.4111671 56.4273966 47.7369707 65.531383 77 40.5008326 59.3033657 15.4702823 77 24.5726034 47.7369707 0 29.4111671 30.65747 29.0216813"></polygon>
          </g>
        </g>
      <g id="Page-1-Copy-2" opacity="0.386548913" mask="url(#mask-2)">
        <g transform="translate(545.000000, 54.000000)">
          <polygon id="Fill-1" stroke="none" fill="#293171" fill-rule="evenodd" points="30.65747 29.0233458 0 29.4111671 24.5709381 47.7386351 15.468617 77 40.5008326 59.3050302 65.531383 77 56.4273966 47.7386351 81 29.4111671 50.3441952 29.0233458 40.5008326 0"></polygon>
          <polygon id="Stroke-2" stroke="#333366" stroke-width="0.249" fill="none" points="40.5008326 0 50.3441952 29.0216813 81 29.4111671 56.4273966 47.7369707 65.531383 77 40.5008326 59.3033657 15.4702823 77 24.5726034 47.7369707 0 29.4111671 30.65747 29.0216813"></polygon>
        </g>
      </g>
      <g id="Page-1-Copy-5" opacity="0.2734375" mask="url(#mask-2)">
        <g transform="translate(198.000000, 81.000000)">
          <polygon id="Fill-1" stroke="none" fill="#293171" fill-rule="evenodd" points="97.6497194 92.3470094 0 93.5809861 78.262988 151.895657 49.2704097 245 129.002652 188.697823 208.72959 245 179.731708 151.895657 258 93.5809861 160.355585 92.3470094 129.002652 0"></polygon>
          <polygon id="Stroke-2" stroke="#333366" stroke-width="0.249" fill="none" points="129.002652 0 160.355585 92.3417133 258 93.5809861 179.731708 151.890361 208.72959 245 129.002652 188.692527 49.2757139 245 78.2682922 151.890361 0 93.5809861 97.6497194 92.3417133"></polygon>
        </g>
      </g>
        <g id="Page-1-Copy-9" opacity="0.2734375" mask="url(#mask-2)">
          <g transform="translate(626.000000, -68.000000)">
            <polygon id="Fill-1" stroke="none" fill="#293171" fill-rule="evenodd" points="97.6497194 92.3470094 0 93.5809861 78.262988 151.895657 49.2704097 245 129.002652 188.697823 208.72959 245 179.731708 151.895657 258 93.5809861 160.355585 92.3470094 129.002652 0"></polygon>
            <polygon id="Stroke-2" stroke="#333366" stroke-width="0.249" fill="none" points="129.002652 0 160.355585 92.3417133 258 93.5809861 179.731708 151.890361 208.72959 245 129.002652 188.692527 49.2757139 245 78.2682922 151.890361 0 93.5809861 97.6497194 92.3417133"></polygon>
          </g>
        </g>
        <g id="Page-1-Copy-7" opacity="0.2734375" mask="url(#mask-2)">
          <g transform="translate(328.000000, -97.000000)">
            <polygon id="Fill-1" stroke="none" fill="#293171" fill-rule="evenodd" points="97.6497194 92.3470094 0 93.5809861 78.262988 151.895657 49.2704097 245 129.002652 188.697823 208.72959 245 179.731708 151.895657 258 93.5809861 160.355585 92.3470094 129.002652 0"></polygon>
            <polygon id="Stroke-2" stroke="#333366" stroke-width="0.249" fill="none" points="129.002652 0 160.355585 92.3417133 258 93.5809861 179.731708 151.890361 208.72959 245 129.002652 188.692527 49.2757139 245 78.2682922 151.890361 0 93.5809861 97.6497194 92.3417133"></polygon>
          </g>
        </g>
        <g id="Page-1-Copy-6" opacity="0.2734375" mask="url(#mask-2)">
          <g transform="translate(198.000000, 0.000000)">
            <polygon id="Fill-1" stroke="none" fill="#293171" fill-rule="evenodd" points="43.1475504 40.7080694 0 41.2520265 34.5813203 66.9580856 21.7706462 108 57.0011719 83.1810813 92.2293538 108 79.416336 66.9580856 114 41.2520265 70.8547933 40.7080694 57.0011719 0"></polygon>
            <polygon id="Stroke-2" stroke="#333366" stroke-width="0.249" fill="none" points="57.0011719 0 70.8547933 40.7057349 114 41.2520265 79.416336 66.9557511 92.2293538 108 57.0011719 83.1787467 21.7729899 108 34.583664 66.9557511 0 41.2520265 43.1475504 40.7057349"></polygon>
          </g>
        </g>
      </g>
    </g>
  </g>
</svg>
